HIERARCHY
ROOT Hips
{
	OFFSET 0.000000 0.000000 0.000000 
	CHANNELS 6 Xposition Yposition Zposition Zrotation Yrotation Xrotation
	JOINT LeftUpLeg
	{
		OFFSET 1.363060 -1.794630 0.839290 
		CHANNELS 3 Zrotation Yrotation Xrotation
		JOINT LeftLeg
		{
			OFFSET 2.448110 -6.726130 0.000000 
			CHANNELS 3 Zrotation Yrotation Xrotation
			JOINT LeftFoot
			{
				OFFSET 2.562200 -7.039590 0.000000 
				CHANNELS 3 Zrotation Yrotation Xrotation
				JOINT LeftToeBase
				{
					OFFSET 0.157640 -0.433110 2.322550 
					CHANNELS 3 Zrotation Yrotation Xrotation
					End Site
					{
						OFFSET 0.000000 0.000000 0.000000 
					}
				}
			}
		}
	}
	JOINT RightUpLeg
	{
		OFFSET -1.305520 -1.794630 0.839290 
		CHANNELS 3 Zrotation Yrotation Xrotation
		JOINT RightLeg
		{
			OFFSET -2.542530 -6.985550 0.000000 
			CHANNELS 3 Zrotation Yrotation Xrotation
			JOINT RightFoot
			{
				OFFSET -2.568260 -7.056230 0.000000 
				CHANNELS 3 Zrotation Yrotation Xrotation
				JOINT RightToeBase
				{
					OFFSET -0.164730 -0.452590 2.363150 
					CHANNELS 3 Zrotation Yrotation Xrotation
					End Site
					{
						OFFSET 0.000000 0.000000 0.000000 
					}
				}
			}
		}
	}
	JOINT Spine
	{
		OFFSET 0.028270 2.035590 -0.193380 
		CHANNELS 3 Zrotation Yrotation Xrotation
		JOINT Spine1
		{
			OFFSET 0.056720 2.048850 -0.042750 
			CHANNELS 3 Zrotation Yrotation Xrotation
			JOINT Neck1
			{
				OFFSET -0.054170 1.746240 0.172020 
				CHANNELS 3 Zrotation Yrotation Xrotation
				JOINT Head
				{
					OFFSET 0.104070 1.761360 -0.123970 
					CHANNELS 3 Zrotation Yrotation Xrotation
					End Site
					{
						OFFSET 0.000000 0.000000 0.000000 
					}
				}
			}
			JOINT LeftArm
			{
				OFFSET 3.362410 1.200890 -0.311210 
				CHANNELS 3 Zrotation Yrotation Xrotation
				JOINT LeftForeArm
				{
					OFFSET 4.983000 -0.000000 -0.000000 
					CHANNELS 3 Zrotation Yrotation Xrotation
					JOINT LeftHand
					{
						OFFSET 3.483560 -0.000000 -0.000000 
						CHANNELS 3 Zrotation Yrotation Xrotation
						JOINT LeftHandIndex1
						{
							OFFSET 0.715260 -0.000000 -0.000000 
							CHANNELS 3 Zrotation Yrotation Xrotation
							End Site
							{
								OFFSET 0.000000 0.000000 0.000000 
							}
						}
					}
				}
			}
			JOINT RightArm
			{
				OFFSET -3.136600 1.374050 -0.404650 
				CHANNELS 3 Zrotation Yrotation Xrotation
				JOINT RightForeArm
				{
					OFFSET -5.241900 -0.000000 -0.000000 
					CHANNELS 3 Zrotation Yrotation Xrotation
					JOINT RightHand
					{
						OFFSET -3.444170 -0.000000 -0.000000 
						CHANNELS 3 Zrotation Yrotation Xrotation
						JOINT RightHandIndex1
						{
							OFFSET -0.622530 -0.000000 -0.000000 
							CHANNELS 3 Zrotation Yrotation Xrotation
							End Site
							{
								OFFSET 0.000000 0.000000 0.000000 
							}
						}
					}
				}
			}
		}
	}
}
MOTION
Frames: 15
Frame Time: 0.041667
0.042785 17.488876 -10.251814 -0.836394 -32.046711 25.964753 -29.679827 -5.547511 -42.698363 0.458588 12.775823 32.312397 -2.444776 17.095484 -30.035309 0.999900 6.363400 17.842600 30.553804 -4.976516 -22.235893 -6.912787 -15.157394 41.596112 4.655025 -42.182036 33.094839 -0.466900 -4.382700 12.156000 0.694463 3.834841 -7.083083 1.968273 2.248289 -1.052170 7.508847 3.083145 16.131983 0.828700 2.171000 13.650300 -62.156695 21.433562 68.632255 23.302024 -32.171421 -6.721402 -3.144989 -1.050140 -22.061677 -7.125000 0.000000 0.000000 68.389297 -24.811832 62.703086 -18.157896 22.961344 -4.046313 0.147508 2.928564 -30.734462 7.125000 0.000000 0.000000 
0.045765 17.490686 -10.252026 -0.541026 -31.972113 25.645212 -29.973850 -5.553263 -42.425406 0.429375 12.714079 32.163453 -2.580700 17.414917 -29.907446 0.948900 6.203600 17.376400 30.360216 -5.041551 -22.065196 -6.916837 -15.135268 41.697833 5.700858 -43.119168 30.802006 -0.802900 -5.718900 15.971100 0.681545 3.764393 -7.047741 1.976259 2.216196 -1.071457 7.456977 3.120159 16.021912 0.766000 2.191500 13.535600 -61.596970 21.239703 70.158333 23.593020 -32.444105 -6.805066 -3.037934 -1.092229 -22.523159 -7.125000 0.000000 0.000000 68.111249 -24.829254 63.427936 -18.491285 23.328310 -4.147104 0.068801 2.937812 -31.109472 7.125000 0.000000 0.000000 
0.046936 17.492708 -10.256071 -0.657116 -32.384011 25.875994 -29.934355 -5.482715 -42.707071 0.437374 12.743633 32.228201 -2.607094 17.582199 -30.078288 0.928700 6.139000 17.188300 30.296767 -4.530308 -22.022713 -6.874660 -15.123650 41.770178 6.715025 -43.853215 28.412481 -1.245800 -7.077100 19.943900 0.674115 3.898937 -7.042645 2.036887 2.283118 -1.024912 7.452054 3.184710 15.944290 0.753700 2.219800 13.485100 -61.119938 21.100008 71.461080 23.923101 -32.762925 -6.915487 -2.942583 -1.110714 -22.643961 -7.125000 0.000000 0.000000 67.757198 -24.950046 64.056777 -19.001801 23.883452 -4.303366 0.032807 2.921459 -31.294017 7.125000 0.000000 0.000000 
0.043211 17.495794 -10.272248 -1.128312 -33.328700 26.678347 -29.611313 -5.259187 -43.495103 0.413437 12.761515 32.205529 -2.571786 17.687130 -30.497436 0.966800 6.260400 17.541800 30.372987 -3.264744 -22.188993 -6.795576 -15.140782 41.765592 7.443759 -44.422944 26.665615 -1.637900 -8.067100 22.918100 0.676640 4.219292 -7.067479 2.241856 2.447450 -0.926823 7.460473 3.273073 15.922302 0.749800 2.262000 13.552500 -60.869482 20.824863 71.947322 24.110955 -32.973851 -7.033672 -2.971071 -1.148266 -22.551478 -7.125000 0.000000 0.000000 67.250780 -25.014928 65.011566 -19.547489 24.456787 -4.475009 0.009342 2.900016 -31.710266 7.125000 0.000000 0.000000 
0.042785 17.498987 -10.282359 -1.361399 -33.668889 27.022369 -29.457505 -5.130098 -43.808018 0.414932 12.785310 32.250181 -2.403700 17.315324 -30.711686 1.046000 6.504100 18.254300 30.484190 -2.758002 -22.227790 -6.740142 -15.132591 41.763884 8.009979 -44.809569 25.251675 -1.928400 -8.715300 24.908600 0.681664 4.305330 -7.060819 2.271335 2.483741 -0.836255 7.410512 3.328466 15.880303 0.692500 2.295800 13.600500 -60.649677 20.435246 72.210460 24.152831 -33.034383 -7.107723 -3.047315 -1.198162 -22.570255 -7.125000 0.000000 0.000000 66.833755 -25.050879 65.767506 -20.082839 25.056804 -4.675747 0.027217 2.895477 -32.118206 7.125000 0.000000 0.000000 
0.050448 17.498774 -10.273632 -1.134261 -33.126108 26.512962 -29.602431 -5.228532 -43.275786 0.432519 12.778536 32.282706 -2.315797 16.961321 -30.506018 1.083600 6.616000 18.582700 30.549556 -3.573308 -21.995889 -6.752477 -15.090729 41.740239 7.904473 -44.561639 25.398514 -1.828400 -8.499200 24.240800 0.696729 4.057424 -7.013418 2.110095 2.348813 -0.841345 7.403584 3.412421 15.826618 0.698400 2.326000 13.514700 -60.419560 20.271247 72.852815 24.337555 -33.226022 -7.214913 -3.073498 -1.197912 -22.941256 -7.125000 0.000000 0.000000 66.515238 -25.136866 66.351586 -20.481475 25.528576 -4.830951 0.032469 2.893770 -32.328335 7.125000 0.000000 0.000000 
0.050235 17.505054 -10.278847 -1.511378 -33.799741 27.004650 -29.312311 -5.117145 -43.629301 0.395344 12.759505 32.192689 -2.282315 17.084879 -30.941650 1.135400 6.767100 19.027300 30.603219 -3.029642 -22.111988 -6.725401 -15.102339 41.620393 7.635537 -44.464923 26.124960 -1.714800 -8.245000 23.460700 0.660112 4.411626 -7.023752 2.056429 2.519702 -0.852371 7.486982 3.504785 15.795378 0.756400 2.370600 13.432600 -59.904724 20.165482 74.006321 24.673408 -33.552819 -7.359293 -3.023972 -1.194849 -23.292513 -7.125000 0.000000 0.000000 66.280346 -25.212133 67.221754 -20.818201 25.887156 -4.935158 -0.061447 2.893685 -32.758856 7.125000 0.000000 0.000000 
0.050022 17.511333 -10.280976 -1.540280 -34.087200 27.276401 -29.256746 -5.200012 -43.836851 0.357630 12.733718 32.076580 -2.246010 17.102887 -31.178628 1.165900 6.854400 19.284700 30.529317 -2.768931 -22.265328 -6.681370 -15.084394 41.523910 7.957629 -44.901519 25.497806 -1.879100 -8.609600 24.581500 0.615191 4.555740 -7.004789 1.957571 2.575960 -0.715229 7.607847 3.577964 15.710522 0.838600 2.410700 13.335400 -59.217966 19.902084 75.434792 25.097810 -33.964344 -7.546249 -2.953580 -1.218639 -23.758482 -7.125000 0.000000 0.000000 65.945046 -25.143588 68.332300 -21.268458 26.391982 -5.089316 -0.111471 2.879295 -33.287671 7.125000 0.000000 0.000000 
0.057685 17.511439 -10.270333 -0.971963 -33.406643 26.521690 -29.681270 -5.382172 -43.200863 0.369171 12.708303 32.058856 -2.352503 17.204232 -30.778270 1.057800 6.539400 18.357800 30.374371 -3.675730 -21.993247 -6.684630 -15.018729 41.492896 8.322530 -45.276822 24.728242 -1.968200 -8.799600 25.170500 0.614206 4.176312 -6.936565 1.797167 2.374023 -0.646012 7.625252 3.632671 15.658037 0.844800 2.441600 13.303300 -58.646616 19.806864 76.573278 25.665055 -34.528518 -7.820928 -2.896120 -1.222437 -24.212388 -7.125000 0.000000 0.000000 65.489471 -25.070786 69.292995 -21.862040 27.078829 -5.335296 -0.072719 2.869174 -33.584866 7.125000 0.000000 0.000000 
0.058643 17.514952 -10.273632 -1.102467 -33.531162 26.691800 -29.623799 -5.227861 -43.353550 0.366098 12.701304 32.028483 -2.392590 17.232483 -30.635088 1.050900 6.518800 18.297500 30.480161 -3.596130 -22.015862 -6.664777 -15.009416 41.389060 8.135656 -45.174494 25.212125 -1.883900 -8.619900 24.613500 0.628493 4.154082 -6.940911 1.794034 2.365583 -0.702430 7.589402 3.703651 15.581439 0.799900 2.474800 13.216500 -58.433013 19.844007 76.788822 26.103950 -34.984791 -8.067160 -2.903268 -1.188974 -24.054527 -7.125000 0.000000 0.000000 64.903785 -25.103026 70.405676 -22.455282 27.732432 -5.587325 -0.058516 2.866604 -33.786515 7.125000 0.000000 0.000000 
0.052577 17.524211 -10.286616 -1.786117 -34.679331 27.832553 -29.247347 -4.807047 -44.424483 0.345297 12.730393 32.020778 -2.375153 17.372881 -31.030107 1.102400 6.671400 18.745300 30.564880 -2.549545 -22.457875 -6.630311 -15.063257 41.177183 6.928850 -44.016579 27.895298 -1.407300 -7.503600 21.216300 0.603743 4.665930 -6.985259 1.925854 2.625936 -0.651060 7.618017 3.759063 15.489779 0.815600 2.493300 13.105400 -58.158795 19.739522 77.037987 26.467512 -35.367205 -8.286187 -2.920650 -1.177221 -23.552961 -7.125000 0.000000 0.000000 64.460389 -25.143303 71.282246 -22.921389 28.244461 -5.795816 -0.064379 2.875676 -33.777186 7.125000 0.000000 0.000000 
0.049916 17.529958 -10.288745 -2.047518 -34.939352 28.075506 -28.968810 -4.817787 -44.553780 0.344540 12.751005 32.063528 -2.294561 17.318772 -31.354707 1.142200 6.786800 19.085300 30.686905 -2.496706 -22.465980 -6.609772 -15.059862 41.011827 5.905443 -42.832177 30.035421 -0.950600 -6.209100 17.392200 0.615601 4.756028 -6.995536 1.994693 2.678565 -0.729235 7.691279 3.867533 15.444526 0.877100 2.536500 13.054600 -57.544526 19.669769 78.248394 27.042825 -35.921087 -8.588502 -2.876051 -1.198880 -23.636375 -7.125000 0.000000 0.000000 63.960124 -25.244525 72.175257 -23.459940 28.832090 -6.045178 -0.070916 2.890911 -33.774635 7.125000 0.000000 0.000000 
0.050767 17.533790 -10.288958 -2.294103 -35.037169 28.189243 -28.717138 -4.815485 -44.518344 0.341304 12.749551 32.062392 -2.236164 17.223536 -31.493966 1.177500 6.887100 19.381300 30.868046 -2.446154 -22.333133 -6.572866 -15.029153 40.935269 6.147222 -43.020292 29.471319 -1.049600 -6.514800 18.285700 0.608945 4.807249 -7.001987 1.885762 2.697071 -0.815619 7.748547 3.933999 15.467671 0.914300 2.578700 13.118400 -56.753698 19.556799 79.633435 27.702044 -36.524580 -8.933783 -2.811742 -1.226085 -23.979895 -7.125000 0.000000 0.000000 63.590041 -25.315578 72.989434 -24.056411 29.461751 -6.305067 -0.097058 2.890251 -33.894113 7.125000 0.000000 0.000000 
0.050342 17.536025 -10.288745 -2.320170 -35.360539 28.141923 -28.673061 -4.848511 -44.380684 0.310034 12.714105 31.973083 -2.161165 17.193532 -31.832482 1.219400 7.004300 19.728100 30.759315 -2.228200 -22.102479 -6.515379 -14.978372 40.892923 6.947320 -43.553376 27.530807 -1.387200 -7.452200 21.062000 0.578992 4.895222 -6.960561 1.820470 2.730966 -0.718058 7.806560 4.086944 15.405938 0.934500 2.663600 13.124700 -56.069987 19.273990 80.452886 28.321134 -37.103007 -9.286376 -2.769871 -1.261559 -24.416459 -7.125000 0.000000 0.000000 63.152298 -25.067296 74.145048 -24.486516 29.948189 -6.524449 -0.102371 2.916923 -34.347075 7.125000 0.000000 0.000000 
0.049384 17.541772 -10.288958 -2.198090 -35.781316 28.092384 -28.668548 -5.101492 -44.235641 0.262627 12.680122 31.866626 -1.948967 16.967415 -32.499558 1.294900 7.209700 20.338100 30.480125 -2.257613 -22.115002 -6.505444 -14.962743 40.818984 6.683482 -43.134959 28.032060 -1.262500 -7.122400 20.078500 0.548176 5.001982 -6.932177 1.843597 2.784334 -0.643715 7.771424 4.215605 15.391309 0.875400 2.738500 13.162400 -55.359415 19.045869 81.368344 29.035490 -37.752122 -9.673781 -2.680276 -1.301246 -24.954856 -7.125000 0.000000 0.000000 62.575361 -24.892971 75.469679 -24.928866 30.456865 -6.776399 -0.072982 2.955774 -34.842033 7.125000 0.000000 0.000000 
